<svg width="100" height="100" viewBox="0 0 100 100" fill="none" xmlns="http://www.w3.org/2000/svg">
<path d="M50.0001 3.4639e-10C36.7393 -4.93325e-05 24.0216 5.26774 14.6448 14.6445C5.26795 24.0213 4.97283e-05 36.739 3.52073e-10 49.9998C-4.97276e-05 63.2606 5.26773 75.9784 14.6445 85.3552C24.0213 94.7321 36.7389 99.9999 49.9997 100H50.0001C63.2609 100 75.9785 94.7321 85.3553 85.3553C94.7321 75.9785 100 63.2608 100 50C100 36.7392 94.7321 24.0215 85.3553 14.6447C75.9785 5.26785 63.2609 3.4639e-10 50.0001 3.4639e-10Z" fill="#001EB6"/>
<path d="M45.2565 70.7654C43.9402 70.7676 42.659 70.3417 41.6059 69.5521L41.5406 69.5031L27.7906 58.9848C26.5062 57.9982 25.666 56.542 25.4546 54.9363C25.2433 53.3305 25.678 51.7065 26.6634 50.4212C27.6488 49.1358 29.1043 48.2943 30.7098 48.0815C32.3154 47.8686 33.9398 48.3019 35.226 49.2861L44.1322 56.1158L65.1779 28.6593C65.666 28.0227 66.2746 27.4885 66.969 27.0872C67.6635 26.6858 68.4302 26.4252 69.2254 26.3202C70.0206 26.2151 70.8286 26.2677 71.6035 26.475C72.3784 26.6823 73.1048 27.0402 73.7414 27.5282L73.7432 27.5295L73.6126 27.7109L73.7467 27.5295C75.0309 28.5165 75.8712 29.9727 76.083 31.5785C76.2948 33.1842 75.8609 34.8085 74.8765 36.0947L50.122 68.3752C49.5493 69.1189 48.813 69.7208 47.9702 70.134C47.1273 70.5473 46.2005 70.7608 45.2618 70.7581L45.2565 70.7654Z" fill="white"/>
</svg>
